<svg width="18" height="14" viewBox="0 0 18 14" fill="none" xmlns="http://www.w3.org/2000/svg">
<path fill-rule="evenodd" clip-rule="evenodd" d="M0 0H25.6503V1.03847H0V0ZM0 2.07694H25.6503V3.11542H0V2.07694ZM0 4.15389H25.6503V5.19236H0V4.15389ZM0 6.23083H25.6503V7.2693H0V6.23083ZM0 8.30777H25.6503V9.34625H0V8.30777ZM0 10.3847H25.6503V11.4232H0V10.3847ZM0 12.4617H25.6503V13.5001H0V12.4617Z" fill="#BD3D44"/>
<path fill-rule="evenodd" clip-rule="evenodd" d="M0 1.03857H25.6503V2.07705H0V1.03857ZM0 3.11552H25.6503V4.15399H0V3.11552ZM0 5.19246H25.6503V6.23093H0V5.19246ZM0 7.2694H25.6503V8.30788H0V7.2694ZM0 9.34635H25.6503V10.3848H0V9.34635ZM0 11.4233H25.6503V12.4618H0V11.4233Z" fill="white"/>
<path fill-rule="evenodd" clip-rule="evenodd" d="M0 0H10.26V7.26917H0V0Z" fill="#192F5D"/>
<path fill-rule="evenodd" clip-rule="evenodd" d="M0.85505 0.311035L0.94839 0.598332H1.2505L1.00608 0.775915L1.09945 1.06321L0.855023 0.885655L0.610652 1.06321L0.703992 0.775915L0.459595 0.598332H0.761684L0.85505 0.311035ZM2.56504 0.311035L2.65841 0.598332H2.96052L2.7161 0.775915L2.80946 1.06321L2.56504 0.885655L2.32067 1.06321L2.41401 0.775915L2.16961 0.598332H2.4717L2.56504 0.311035ZM4.27511 0.311035L4.36845 0.598332H4.67057L4.42614 0.775915L4.51951 1.06321L4.27511 0.885655L4.03071 1.06321L4.12405 0.775915L3.87966 0.598332H4.18177L4.27511 0.311035ZM5.98508 0.311035L6.07842 0.598332H6.38051L6.13611 0.775915L6.22945 1.06321L5.98508 0.885655L5.74065 1.06321L5.83402 0.775915L5.58959 0.598332H5.89171L5.98508 0.311035ZM7.69512 0.311035L7.78846 0.598332H8.09057L7.84615 0.775915L7.93952 1.06321L7.69509 0.885655L7.45072 1.06321L7.54406 0.775915L7.29967 0.598332H7.60175L7.69512 0.311035ZM9.40516 0.311035L9.4985 0.598332H9.80062L9.5562 0.775915L9.64956 1.06321L9.40516 0.885655L9.16074 1.06321L9.25413 0.775915L9.00971 0.598332H9.31182L9.40516 0.311035ZM1.71009 1.03798L1.80342 1.32528H2.10554L1.86112 1.50283L1.95451 1.79016L1.71009 1.6126L1.46569 1.79016L1.55903 1.50283L1.31463 1.32528H1.61675L1.71009 1.03798ZM3.42005 1.03798L3.51339 1.32528H3.81548L3.57108 1.50283L3.66442 1.79016L3.42005 1.6126L3.17563 1.79016L3.26899 1.50283L3.02457 1.32528H3.32668L3.42005 1.03798ZM5.13009 1.03798L5.22343 1.32528H5.52555L5.28112 1.50283L5.37449 1.79016L5.13007 1.6126L4.8857 1.79016L4.97904 1.50283L4.73464 1.32528H5.03673L5.13009 1.03798ZM6.84014 1.03798L6.93348 1.32528H7.23559L6.99117 1.50283L7.08454 1.79016L6.84014 1.6126L6.59571 1.79016L6.68913 1.50283L6.44471 1.32528H6.74682L6.84014 1.03798ZM8.5501 1.03798L8.64344 1.32528H8.94553L8.70113 1.50283L8.79447 1.79016L8.5501 1.6126L8.30568 1.79016L8.39905 1.50283L8.15462 1.32528H8.45674L8.5501 1.03798ZM0.85505 1.7649L0.94839 2.05219H1.2505L1.00608 2.22978L1.09945 2.51707L0.855023 2.33952L0.610652 2.51707L0.703992 2.22978L0.459595 2.05219H0.761684L0.85505 1.7649ZM2.56504 1.7649L2.65841 2.05219H2.96052L2.7161 2.22978L2.80946 2.51707L2.56504 2.33952L2.32067 2.51707L2.41401 2.22978L2.16961 2.05219H2.4717L2.56504 1.7649ZM4.27511 1.7649L4.36845 2.05219H4.67057L4.42614 2.22978L4.51951 2.51707L4.27511 2.33952L4.03071 2.51707L4.12405 2.22978L3.87966 2.05219H4.18177L4.27511 1.7649ZM5.98508 1.7649L6.07842 2.05219H6.38051L6.13611 2.22978L6.22945 2.51707L5.98508 2.33952L5.74065 2.51707L5.83402 2.22978L5.58959 2.05219H5.89171L5.98508 1.7649ZM7.69512 1.7649L7.78846 2.05219H8.09057L7.84615 2.22978L7.93952 2.51707L7.69509 2.33952L7.45072 2.51707L7.54406 2.22978L7.29967 2.05219H7.60175L7.69512 1.7649ZM9.40516 1.7649L9.4985 2.05219H9.80062L9.5562 2.22978L9.64956 2.51707L9.40516 2.33952L9.16074 2.51707L9.25413 2.22978L9.00971 2.05219H9.31182L9.40516 1.7649ZM1.71009 2.49181L1.80342 2.77914H2.10554L1.86112 2.95669L1.95451 3.24402L1.71009 3.06646L1.46569 3.24402L1.55903 2.95669L1.31463 2.77914H1.61675L1.71009 2.49181ZM3.42005 2.49181L3.51339 2.77914H3.81548L3.57108 2.95669L3.66442 3.24402L3.42005 3.06646L3.17563 3.24402L3.26899 2.95669L3.02457 2.77914H3.32668L3.42005 2.49181ZM5.13009 2.49181L5.22343 2.77914H5.52555L5.28112 2.95669L5.37449 3.24402L5.13007 3.06646L4.8857 3.24402L4.97904 2.95669L4.73464 2.77914H5.03673L5.13009 2.49181ZM6.84014 2.49181L6.93348 2.77914H7.23559L6.99117 2.95669L7.08454 3.24402L6.84014 3.06646L6.59571 3.24402L6.68911 2.95669L6.44468 2.77914H6.7468L6.84014 2.49181ZM8.5501 2.49181L8.64344 2.77914H8.94553L8.70113 2.95669L8.79447 3.24402L8.5501 3.06646L8.30568 3.24402L8.39905 2.95669L8.15462 2.77914H8.45674L8.5501 2.49181ZM0.85505 3.21876L0.94839 3.50605H1.2505L1.00608 3.68364L1.09945 3.97093L0.855023 3.79338L0.610652 3.97093L0.703992 3.68364L0.459595 3.50605H0.761684L0.85505 3.21876ZM2.56504 3.21876L2.65841 3.50605H2.96052L2.7161 3.68364L2.80946 3.97093L2.56504 3.79338L2.32067 3.97093L2.41401 3.68364L2.16961 3.50605H2.4717L2.56504 3.21876ZM4.27511 3.21876L4.36845 3.50605H4.67057L4.42614 3.68364L4.51951 3.97093L4.27511 3.79338L4.03071 3.97093L4.12405 3.68364L3.87966 3.50605H4.18177L4.27511 3.21876ZM5.98508 3.21876L6.07842 3.50605H6.38051L6.13611 3.68364L6.22945 3.97093L5.98508 3.79338L5.74065 3.97093L5.83402 3.68364L5.58959 3.50605H5.89171L5.98508 3.21876ZM7.69512 3.21876L7.78846 3.50605H8.09057L7.84615 3.68364L7.93952 3.97093L7.69509 3.79338L7.45072 3.97093L7.54406 3.68364L7.29967 3.50605H7.60175L7.69512 3.21876ZM9.40516 3.21876L9.4985 3.50605H9.80062L9.5562 3.68364L9.64956 3.97093L9.40516 3.79338L9.16074 3.97093L9.25413 3.68364L9.00971 3.50605H9.31182L9.40516 3.21876ZM1.71009 3.94567L1.80342 4.233H2.10554L1.86112 4.41055L1.95451 4.69788L1.71009 4.52032L1.46569 4.69788L1.55903 4.41055L1.31463 4.233H1.61675L1.71009 3.94567ZM3.42005 3.94567L3.51339 4.233H3.81548L3.57108 4.41055L3.66442 4.69788L3.42005 4.52032L3.17563 4.69788L3.26899 4.41055L3.02457 4.233H3.32668L3.42005 3.94567ZM5.13009 3.94567L5.22343 4.233H5.52555L5.28112 4.41055L5.37449 4.69788L5.13007 4.52032L4.8857 4.69788L4.97904 4.41055L4.73464 4.233H5.03673L5.13009 3.94567ZM6.84014 3.94567L6.93348 4.233H7.23559L6.99117 4.41055L7.08454 4.69788L6.84014 4.52032L6.59571 4.69788L6.68911 4.41055L6.44468 4.233H6.7468L6.84014 3.94567ZM8.5501 3.94567L8.64344 4.233H8.94553L8.70113 4.41055L8.79447 4.69788L8.5501 4.52032L8.30568 4.69788L8.39905 4.41055L8.15462 4.233H8.45674L8.5501 3.94567Z" fill="white"/>
<path fill-rule="evenodd" clip-rule="evenodd" d="M0.85505 4.67285L0.94839 4.96015H1.2505L1.00608 5.13773L1.09945 5.42503L0.855023 5.24747L0.610652 5.42503L0.703992 5.13773L0.459595 4.96015H0.761684L0.85505 4.67285ZM2.56504 4.67285L2.65841 4.96015H2.96052L2.7161 5.13773L2.80946 5.42503L2.56504 5.24747L2.32067 5.42503L2.41401 5.13773L2.16961 4.96015H2.4717L2.56504 4.67285ZM4.27511 4.67285L4.36845 4.96015H4.67057L4.42614 5.13773L4.51951 5.42503L4.27511 5.24747L4.03071 5.42503L4.12405 5.13773L3.87966 4.96015H4.18177L4.27511 4.67285ZM5.98508 4.67285L6.07842 4.96015H6.38051L6.13611 5.13773L6.22945 5.42503L5.98508 5.24747L5.74065 5.42503L5.83402 5.13773L5.58959 4.96015H5.89171L5.98508 4.67285ZM7.69512 4.67285L7.78846 4.96015H8.09057L7.84615 5.13773L7.93952 5.42503L7.69509 5.24747L7.45072 5.42503L7.54406 5.13773L7.29967 4.96015H7.60175L7.69512 4.67285ZM9.40516 4.67285L9.4985 4.96015H9.80062L9.5562 5.13773L9.64956 5.42503L9.40516 5.24747L9.16074 5.42503L9.25413 5.13773L9.00971 4.96015H9.31182L9.40516 4.67285ZM1.71009 5.39977L1.80342 5.68709H2.10554L1.86112 5.86465L1.95451 6.15197L1.71009 5.97442L1.46569 6.15197L1.55903 5.86465L1.31463 5.68709H1.61675L1.71009 5.39977ZM3.42005 5.39977L3.51339 5.68709H3.81548L3.57108 5.86465L3.66442 6.15197L3.42005 5.97442L3.17563 6.15197L3.26899 5.86465L3.02457 5.68709H3.32668L3.42005 5.39977ZM5.13009 5.39977L5.22343 5.68709H5.52555L5.28112 5.86465L5.37449 6.15197L5.13007 5.97442L4.8857 6.15197L4.97904 5.86465L4.73464 5.68709H5.03673L5.13009 5.39977ZM6.84014 5.39977L6.93348 5.68709H7.23559L6.99117 5.86465L7.08454 6.15197L6.84014 5.97442L6.59571 6.15197L6.68911 5.86465L6.44468 5.68709H6.7468L6.84014 5.39977ZM8.5501 5.39977L8.64344 5.68709H8.94553L8.70113 5.86465L8.79447 6.15197L8.5501 5.97442L8.30568 6.15197L8.39905 5.86465L8.15462 5.68709H8.45674L8.5501 5.39977Z" fill="white"/>
<path fill-rule="evenodd" clip-rule="evenodd" d="M0.85505 6.12646L0.94839 6.41376H1.2505L1.00608 6.59134L1.09945 6.87864L0.855023 6.70108L0.610652 6.87864L0.703992 6.59134L0.459595 6.41376H0.761684L0.85505 6.12646ZM2.56504 6.12646L2.65841 6.41376H2.96052L2.7161 6.59134L2.80946 6.87864L2.56504 6.70108L2.32067 6.87864L2.41401 6.59134L2.16961 6.41376H2.4717L2.56504 6.12646ZM4.27511 6.12646L4.36845 6.41376H4.67057L4.42614 6.59134L4.51951 6.87864L4.27511 6.70108L4.03071 6.87864L4.12405 6.59134L3.87966 6.41376H4.18177L4.27511 6.12646ZM5.98508 6.12646L6.07842 6.41376H6.38051L6.13611 6.59134L6.22945 6.87864L5.98508 6.70108L5.74065 6.87864L5.83402 6.59134L5.58959 6.41376H5.89171L5.98508 6.12646ZM7.69512 6.12646L7.78846 6.41376H8.09057L7.84615 6.59134L7.93952 6.87864L7.69509 6.70108L7.45072 6.87864L7.54406 6.59134L7.29967 6.41376H7.60175L7.69512 6.12646ZM9.40516 6.12646L9.4985 6.41376H9.80062L9.5562 6.59134L9.64956 6.87864L9.40516 6.70108L9.16074 6.87864L9.25413 6.59134L9.00971 6.41376H9.31182L9.40516 6.12646Z" fill="white"/>
</svg>
