<svg width="20" height="32" viewBox="0 0 20 32" fill="none" xmlns="http://www.w3.org/2000/svg">
<g clip-path="url(#clip0_1_476)">
<path fill-rule="evenodd" clip-rule="evenodd" d="M11.3401 10.7021C11.1907 10.5524 11.1068 10.3495 11.1068 10.1379C11.1068 9.9264 11.1907 9.7235 11.3401 9.57373L14.9159 5.99688C14.9901 5.9226 15.0782 5.86367 15.1752 5.82346C15.2722 5.78325 15.3762 5.76255 15.4812 5.76255C15.5862 5.76255 15.6901 5.78325 15.7871 5.82346C15.8841 5.86367 15.9722 5.9226 16.0464 5.99688L19.6212 9.57373C19.6953 9.64782 19.754 9.73578 19.7941 9.83259C19.8342 9.92939 19.8549 10.0332 19.8549 10.1379C19.8549 10.2427 19.8342 10.3465 19.7941 10.4433C19.754 10.5401 19.6953 10.6281 19.6212 10.7021L16.0464 14.279C15.9722 14.3533 15.8841 14.4122 15.7871 14.4524C15.6901 14.4926 15.5862 14.5133 15.4812 14.5133C15.3762 14.5133 15.2722 14.4926 15.1752 14.4524C15.0782 14.4122 14.9901 14.3533 14.9159 14.279L11.3401 10.7021ZM9.36328 8.72636L5.78749 5.15057C5.71295 5.07651 5.65379 4.98844 5.61343 4.89143C5.57306 4.79442 5.55228 4.69038 5.55228 4.5853C5.55228 4.48023 5.57306 4.37619 5.61343 4.27918C5.65379 4.18217 5.71295 4.0941 5.78749 4.02004L9.36328 0.444251C9.51309 0.294545 9.71622 0.210449 9.92801 0.210449C10.1398 0.210449 10.3429 0.294545 10.4928 0.444251L14.0696 4.02004C14.1439 4.09424 14.2028 4.18236 14.243 4.27935C14.2832 4.37634 14.3039 4.48031 14.3039 4.5853C14.3039 4.6903 14.2832 4.79427 14.243 4.89126C14.2028 4.98825 14.1439 5.07637 14.0696 5.15057L10.4928 8.72636C10.3429 8.87606 10.1398 8.96016 9.92801 8.96016C9.71622 8.96016 9.51309 8.87606 9.36328 8.72636ZM9.36328 11.5506C9.51309 11.4009 9.71622 11.3168 9.92801 11.3168C10.1398 11.3168 10.3429 11.4009 10.4928 11.5506L14.0696 15.1264C14.1439 15.2006 14.2028 15.2887 14.243 15.3857C14.2832 15.4827 14.3039 15.5866 14.3039 15.6916C14.3039 15.7966 14.2832 15.9006 14.243 15.9976C14.2028 16.0946 14.1439 16.1827 14.0696 16.2569L10.4928 19.8316C10.4186 19.9059 10.3306 19.9648 10.2337 20.005C10.1368 20.0452 10.0329 20.0659 9.92801 20.0659C9.8231 20.0659 9.71922 20.0452 9.62232 20.005C9.52541 19.9648 9.43739 19.9059 9.36328 19.8316L5.78749 16.2569C5.71295 16.1828 5.65379 16.0948 5.61343 15.9977C5.57306 15.9007 5.55228 15.7967 5.55228 15.6916C5.55228 15.5865 5.57306 15.4825 5.61343 15.3855C5.65379 15.2885 5.71295 15.2004 5.78749 15.1264L9.36328 11.5506ZM3.81064 14.279L0.234855 10.7032C0.160569 10.629 0.101638 10.5409 0.0614297 10.4439C0.0212218 10.3469 0.000526206 10.2429 0.000526206 10.1379C0.000526206 10.0329 0.0212218 9.92897 0.0614297 9.83198C0.101638 9.73499 0.160569 9.64687 0.234855 9.57267L3.81064 5.99794C3.88476 5.92368 3.97278 5.86477 4.06969 5.82458C4.16659 5.78439 4.27047 5.7637 4.37538 5.7637C4.48029 5.7637 4.58417 5.78439 4.68108 5.82458C4.77798 5.86477 4.86601 5.92368 4.94012 5.99794L8.51591 9.57267C8.66568 9.72267 8.7498 9.92597 8.7498 10.1379C8.7498 10.3499 8.66568 10.5532 8.51591 10.7032L4.93907 14.279C4.78925 14.4287 4.58612 14.5128 4.37433 14.5128C4.16253 14.5128 3.96046 14.4287 3.81064 14.279ZM16.0464 17.1032L19.6212 20.679C19.6956 20.753 19.7546 20.841 19.7948 20.9379C19.8351 21.0349 19.8559 21.1388 19.8559 21.2437C19.8559 21.3487 19.8351 21.4526 19.7948 21.5495C19.7546 21.6464 19.6956 21.7344 19.6212 21.8085L16.0464 25.3853C15.8966 25.535 15.6935 25.6191 15.4817 25.6191C15.2699 25.6191 15.0668 25.535 14.917 25.3853L11.3401 21.8085C11.1907 21.6585 11.1068 21.4554 11.1068 21.2437C11.1068 21.032 11.1907 20.8289 11.3401 20.679L14.917 17.1032C15.0668 16.9535 15.2699 16.8694 15.4817 16.8694C15.6935 16.8694 15.8966 16.9535 16.0464 17.1032ZM10.4928 22.6558L14.0685 26.2316C14.1431 26.3057 14.2022 26.3937 14.2426 26.4908C14.283 26.5878 14.3037 26.6918 14.3037 26.7969C14.3037 26.902 14.283 27.006 14.2426 27.103C14.2022 27.2 14.1431 27.2881 14.0685 27.3621L10.4928 30.9369C10.3429 31.0866 10.1398 31.1707 9.92801 31.1707C9.71622 31.1707 9.51309 31.0866 9.36328 30.9369L5.78749 27.3611C5.7132 27.2869 5.65427 27.1988 5.61406 27.1018C5.57385 27.0048 5.55316 26.9008 5.55316 26.7958C5.55316 26.6908 5.57385 26.5869 5.61406 26.4899C5.65427 26.3929 5.7132 26.3048 5.78749 26.2306L9.36328 22.6548C9.51309 22.5051 9.71622 22.421 9.92801 22.421C10.1398 22.421 10.3429 22.5061 10.4928 22.6558ZM8.51591 20.679C8.66561 20.8288 8.74971 21.0319 8.74971 21.2437C8.74971 21.4555 8.66561 21.6586 8.51591 21.8085L4.94012 25.3853C4.79017 25.5348 4.58709 25.6187 4.37538 25.6187C4.16367 25.6187 3.9606 25.5348 3.81064 25.3853L0.233802 21.8085C0.0840953 21.6586 0 21.4555 0 21.2437C0 21.0319 0.0840953 20.8288 0.233802 20.679L3.81064 17.1032C3.96046 16.9535 4.16359 16.8694 4.37538 16.8694C4.58717 16.8694 4.7903 16.9535 4.94012 17.1032L8.51591 20.679Z" fill="#E6C3A5"/>
</g>
<defs>
<clipPath id="clip0_1_476">
<rect width="20" height="32" fill="white"/>
</clipPath>
</defs>
</svg>
