<svg width="16" height="16" viewBox="0 0 16 16" fill="none" xmlns="http://www.w3.org/2000/svg">
<g clip-path="url(#clip0_1_485)">
<path d="M7.11598 13.6347C7.66294 13.9716 8.33706 13.9716 8.88402 13.6347C10.6615 12.5397 14.5 9.77384 14.5 6.30787C14.5 5.43057 14.1445 4.5892 13.5117 3.96885C12.879 3.34851 12.0207 3 11.1258 3C8.94592 3 8 4.8452 8 4.8452C8 4.8452 7.05408 3 4.87415 3C3.97927 3 3.12104 3.34851 2.48827 3.96885C1.85549 4.5892 1.5 5.43057 1.5 6.30787C1.5 9.77384 5.33848 12.5397 7.11598 13.6347Z" fill="#E6842E"/>
</g>
<defs>
<clipPath id="clip0_1_485">
<rect width="16" height="16" fill="white"/>
</clipPath>
</defs>
</svg>
